# MagicaVoxel @ Ephtracy

# group
o 

# material
mtllib msuhirom.mtl
usemtl palette

# normals
vn -1 0 0
vn 1 0 0
vn 0 0 1
vn 0 0 -1
vn 0 -1 0
vn 0 1 0

# texcoords
vt 0.435547 0.5
vt 0.841797 0.5
vt 0.958984 0.5

# verts
v -0.5 0.6 0.2
v -0.5 0.6 -0.2
v -0.5 0.6 -0.3
v -0.5 0.7 0.2
v -0.5 0.7 -0.2
v -0.5 0.7 -0.3
v -0.4 0.6 0.3
v -0.4 0.6 0.2
v -0.4 0.6 -0.3
v -0.4 0.6 -0.4
v -0.4 0.7 0.3
v -0.4 0.7 0.2
v -0.4 0.7 0.1
v -0.4 0.7 -0.2
v -0.4 0.7 -0.3
v -0.4 0.7 -0.4
v -0.4 0.8 0.2
v -0.4 0.8 0.1
v -0.4 0.8 -0.2
v -0.4 0.8 -0.3
v -0.4 0.9 0.1
v -0.4 0.9 -0.2
v -0.3 0 0.1
v -0.3 0 -0.2
v -0.3 0.6 0.4
v -0.3 0.6 0.3
v -0.3 0.6 0.1
v -0.3 0.6 -0.2
v -0.3 0.6 -0.4
v -0.3 0.6 -0.5
v -0.3 0.7 0.4
v -0.3 0.7 0.3
v -0.3 0.7 0.2
v -0.3 0.7 -0.3
v -0.3 0.7 -0.4
v -0.3 0.7 -0.5
v -0.3 0.8 0.3
v -0.3 0.8 0.2
v -0.3 0.8 0.1
v -0.3 0.8 -0.2
v -0.3 0.8 -0.3
v -0.3 0.8 -0.4
v -0.3 0.9 0.2
v -0.3 0.9 0.1
v -0.3 0.9 -0.2
v -0.3 0.9 -0.3
v -0.3 1 0.1
v -0.3 1 -0.2
v -0.2 0 0.2
v -0.2 0 0.1
v -0.2 0 -0.2
v -0.2 0 -0.3
v -0.2 0.6 0.5
v -0.2 0.6 0.4
v -0.2 0.6 0.2
v -0.2 0.6 0.1
v -0.2 0.6 -0.2
v -0.2 0.6 -0.3
v -0.2 0.6 -0.5
v -0.2 0.6 -0.6
v -0.2 0.7 0.5
v -0.2 0.7 0.4
v -0.2 0.7 0.3
v -0.2 0.7 -0.4
v -0.2 0.7 -0.5
v -0.2 0.7 -0.6
v -0.2 0.8 0.4
v -0.2 0.8 0.3
v -0.2 0.8 0.2
v -0.2 0.8 -0.3
v -0.2 0.8 -0.4
v -0.2 0.8 -0.5
v -0.2 0.9 0.3
v -0.2 0.9 0.2
v -0.2 0.9 0.1
v -0.2 0.9 -0.2
v -0.2 0.9 -0.3
v -0.2 0.9 -0.4
v -0.2 1 0.2
v -0.2 1 0.1
v -0.2 1 -0.2
v -0.2 1 -0.3
v -0.2 1.1 0.1
v -0.2 1.1 -0.2
v -0.1 1 0.2
v -0.1 1 0.1
v -0.1 1 -0.2
v -0.1 1 -0.3
v -0.1 1.1 0.2
v -0.1 1.1 0.1
v -0.1 1.1 -0.2
v -0.1 1.1 -0.3
v -0.1 1.2 0.1
v -0.1 1.2 -0.2
v 0.1 1 0.2
v 0.1 1 0.1
v 0.1 1 -0.2
v 0.1 1 -0.3
v 0.1 1.1 0.2
v 0.1 1.1 0.1
v 0.1 1.1 0
v 0.1 1.1 -0.2
v 0.1 1.1 -0.3
v 0.1 1.2 0.1
v 0.1 1.2 -0.2
v 0.2 0 0.2
v 0.2 0 0.1
v 0.2 0 -0.2
v 0.2 0 -0.3
v 0.2 0.6 0.5
v 0.2 0.6 0.4
v 0.2 0.6 0.2
v 0.2 0.6 0.1
v 0.2 0.6 -0.2
v 0.2 0.6 -0.3
v 0.2 0.6 -0.5
v 0.2 0.6 -0.6
v 0.2 0.7 0.5
v 0.2 0.7 0.4
v 0.2 0.7 0.3
v 0.2 0.7 -0.4
v 0.2 0.7 -0.5
v 0.2 0.7 -0.6
v 0.2 0.8 0.4
v 0.2 0.8 0.3
v 0.2 0.8 0.2
v 0.2 0.8 -0.3
v 0.2 0.8 -0.4
v 0.2 0.8 -0.5
v 0.2 0.9 0.3
v 0.2 0.9 0.2
v 0.2 0.9 0.1
v 0.2 0.9 -0.2
v 0.2 0.9 -0.3
v 0.2 0.9 -0.4
v 0.2 1 0.2
v 0.2 1 0.1
v 0.2 1 0
v 0.2 1 -0.2
v 0.2 1 -0.3
v 0.2 1.1 0.1
v 0.2 1.1 0
v 0.2 1.1 -0.2
v 0.3 0 0.1
v 0.3 0 -0.2
v 0.3 0.6 0.4
v 0.3 0.6 0.3
v 0.3 0.6 0.1
v 0.3 0.6 -0.2
v 0.3 0.6 -0.4
v 0.3 0.6 -0.5
v 0.3 0.7 0.4
v 0.3 0.7 0.3
v 0.3 0.7 0.2
v 0.3 0.7 -0.3
v 0.3 0.7 -0.4
v 0.3 0.7 -0.5
v 0.3 0.8 0.3
v 0.3 0.8 0.2
v 0.3 0.8 0.1
v 0.3 0.8 -0.2
v 0.3 0.8 -0.3
v 0.3 0.8 -0.4
v 0.3 0.9 0.2
v 0.3 0.9 0.1
v 0.3 0.9 0
v 0.3 0.9 -0.2
v 0.3 0.9 -0.3
v 0.3 1 0.1
v 0.3 1 -0.2
v 0.4 0.6 0.3
v 0.4 0.6 0.2
v 0.4 0.6 -0.3
v 0.4 0.6 -0.4
v 0.4 0.7 0.3
v 0.4 0.7 0.2
v 0.4 0.7 0.1
v 0.4 0.7 -0.3
v 0.4 0.7 -0.4
v 0.4 0.8 0.2
v 0.4 0.8 0.1
v 0.4 0.8 0
v 0.4 0.8 -0.2
v 0.4 0.8 -0.3
v 0.4 0.9 0.1
v 0.4 0.9 0
v 0.4 0.9 -0.2
v 0.5 0.6 0.2
v 0.5 0.6 -0.3
v 0.5 0.7 0.2
v 0.5 0.7 -0.3
v -0.2 0.6 0.5
v -0.2 0.7 0.5
v -0.1 0.6 0.5
v -0.1 0.7 0.5
v 0.1 0.6 0.5
v 0.1 0.7 0.5
v 0.2 0.6 0.5
v 0.2 0.7 0.5
v -0.3 0.6 0.4
v -0.3 0.7 0.4
v -0.2 0.6 0.4
v -0.2 0.7 0.4
v -0.2 0.8 0.4
v -0.1 0.7 0.4
v 0.1 0.7 0.4
v 0.2 0.6 0.4
v 0.2 0.7 0.4
v 0.2 0.8 0.4
v 0.3 0.6 0.4
v 0.3 0.7 0.4
v -0.4 0.6 0.3
v -0.4 0.7 0.3
v -0.3 0.6 0.3
v -0.3 0.7 0.3
v -0.3 0.8 0.3
v -0.2 0.7 0.3
v -0.2 0.8 0.3
v -0.2 0.9 0.3
v 0.2 0.7 0.3
v 0.2 0.8 0.3
v 0.2 0.9 0.3
v 0.3 0.6 0.3
v 0.3 0.7 0.3
v 0.3 0.8 0.3
v 0.4 0.6 0.3
v 0.4 0.7 0.3
v -0.5 0.6 0.2
v -0.5 0.7 0.2
v -0.4 0.6 0.2
v -0.4 0.7 0.2
v -0.4 0.8 0.2
v -0.3 0.7 0.2
v -0.3 0.8 0.2
v -0.3 0.9 0.2
v -0.2 0 0.2
v -0.2 0.6 0.2
v -0.2 0.8 0.2
v -0.2 0.9 0.2
v -0.2 1 0.2
v -0.1 1 0.2
v -0.1 1.1 0.2
v 0 0.9 0.2
v 0 1 0.2
v 0.1 0.9 0.2
v 0.1 1 0.2
v 0.1 1.1 0.2
v 0.2 0 0.2
v 0.2 0.6 0.2
v 0.2 0.8 0.2
v 0.2 0.9 0.2
v 0.2 1 0.2
v 0.3 0.7 0.2
v 0.3 0.8 0.2
v 0.3 0.9 0.2
v 0.4 0.6 0.2
v 0.4 0.7 0.2
v 0.4 0.8 0.2
v 0.5 0.6 0.2
v 0.5 0.7 0.2
v -0.4 0.8 0.1
v -0.4 0.9 0.1
v -0.3 0 0.1
v -0.3 0.6 0.1
v -0.3 0.8 0.1
v -0.3 0.9 0.1
v -0.3 1 0.1
v -0.2 0 0.1
v -0.2 0.6 0.1
v -0.2 0.9 0.1
v -0.2 1 0.1
v -0.2 1.1 0.1
v -0.1 1 0.1
v -0.1 1.1 0.1
v -0.1 1.2 0.1
v 0.1 1 0.1
v 0.1 1.1 0.1
v 0.1 1.2 0.1
v 0.2 0 0.1
v 0.2 0.6 0.1
v 0.2 0.9 0.1
v 0.2 1 0.1
v 0.2 1.1 0.1
v 0.3 0 0.1
v 0.3 0.6 0.1
v 0.3 0.8 0.1
v 0.3 0.9 0.1
v 0.3 1 0.1
v 0.4 0.8 0.1
v 0.4 0.9 0.1
v -0.4 0.8 -0.2
v -0.4 0.9 -0.2
v -0.3 0 -0.2
v -0.3 0.6 -0.2
v -0.3 0.8 -0.2
v -0.3 0.9 -0.2
v -0.3 1 -0.2
v -0.2 0 -0.2
v -0.2 0.6 -0.2
v -0.2 0.9 -0.2
v -0.2 1 -0.2
v -0.2 1.1 -0.2
v -0.1 1 -0.2
v -0.1 1.1 -0.2
v -0.1 1.2 -0.2
v 0 1.1 -0.2
v 0.1 1 -0.2
v 0.1 1.1 -0.2
v 0.1 1.2 -0.2
v 0.2 0 -0.2
v 0.2 0.6 -0.2
v 0.2 0.9 -0.2
v 0.2 1 -0.2
v 0.2 1.1 -0.2
v 0.3 0 -0.2
v 0.3 0.6 -0.2
v 0.3 0.8 -0.2
v 0.3 0.9 -0.2
v 0.3 1 -0.2
v 0.4 0.8 -0.2
v 0.4 0.9 -0.2
v -0.5 0.6 -0.3
v -0.5 0.7 -0.3
v -0.4 0.6 -0.3
v -0.4 0.7 -0.3
v -0.4 0.8 -0.3
v -0.3 0.7 -0.3
v -0.3 0.8 -0.3
v -0.3 0.9 -0.3
v -0.2 0 -0.3
v -0.2 0.6 -0.3
v -0.2 0.8 -0.3
v -0.2 0.9 -0.3
v -0.2 1 -0.3
v -0.1 0.9 -0.3
v -0.1 1 -0.3
v -0.1 1.1 -0.3
v 0 1 -0.3
v 0 1.1 -0.3
v 0.1 0.9 -0.3
v 0.1 1 -0.3
v 0.1 1.1 -0.3
v 0.2 0 -0.3
v 0.2 0.6 -0.3
v 0.2 0.8 -0.3
v 0.2 0.9 -0.3
v 0.2 1 -0.3
v 0.3 0.7 -0.3
v 0.3 0.8 -0.3
v 0.3 0.9 -0.3
v 0.4 0.6 -0.3
v 0.4 0.7 -0.3
v 0.4 0.8 -0.3
v 0.5 0.6 -0.3
v 0.5 0.7 -0.3
v -0.4 0.6 -0.4
v -0.4 0.7 -0.4
v -0.3 0.6 -0.4
v -0.3 0.7 -0.4
v -0.3 0.8 -0.4
v -0.2 0.7 -0.4
v -0.2 0.8 -0.4
v -0.2 0.9 -0.4
v 0.1 0.8 -0.4
v 0.2 0.7 -0.4
v 0.2 0.8 -0.4
v 0.2 0.9 -0.4
v 0.3 0.6 -0.4
v 0.3 0.7 -0.4
v 0.3 0.8 -0.4
v 0.4 0.6 -0.4
v 0.4 0.7 -0.4
v -0.3 0.6 -0.5
v -0.3 0.7 -0.5
v -0.2 0.6 -0.5
v -0.2 0.7 -0.5
v -0.2 0.8 -0.5
v 0.1 0.7 -0.5
v 0.1 0.8 -0.5
v 0.2 0.6 -0.5
v 0.2 0.7 -0.5
v 0.2 0.8 -0.5
v 0.3 0.6 -0.5
v 0.3 0.7 -0.5
v -0.2 0.6 -0.6
v -0.2 0.7 -0.6
v 0.1 0.6 -0.6
v 0.1 0.7 -0.6
v 0.2 0.6 -0.6
v 0.2 0.7 -0.6
v -0.2 0 0.2
v 0.2 0 0.2
v -0.3 0 0.1
v -0.2 0 0.1
v 0.2 0 0.1
v 0.3 0 0.1
v -0.3 0 -0.2
v -0.2 0 -0.2
v 0.2 0 -0.2
v 0.3 0 -0.2
v -0.2 0 -0.3
v 0.2 0 -0.3
v -0.2 0.6 0.5
v -0.1 0.6 0.5
v 0.1 0.6 0.5
v 0.2 0.6 0.5
v -0.3 0.6 0.4
v -0.2 0.6 0.4
v 0 0.6 0.4
v 0.1 0.6 0.4
v 0.2 0.6 0.4
v 0.3 0.6 0.4
v -0.4 0.6 0.3
v -0.3 0.6 0.3
v -0.1 0.6 0.3
v 0 0.6 0.3
v 0.3 0.6 0.3
v 0.4 0.6 0.3
v -0.5 0.6 0.2
v -0.4 0.6 0.2
v -0.2 0.6 0.2
v 0.2 0.6 0.2
v 0.4 0.6 0.2
v 0.5 0.6 0.2
v -0.3 0.6 0.1
v -0.2 0.6 0.1
v 0.2 0.6 0.1
v 0.3 0.6 0.1
v -0.5 0.6 -0.2
v -0.4 0.6 -0.2
v -0.3 0.6 -0.2
v -0.2 0.6 -0.2
v 0.2 0.6 -0.2
v 0.3 0.6 -0.2
v -0.5 0.6 -0.3
v -0.4 0.6 -0.3
v -0.3 0.6 -0.3
v -0.2 0.6 -0.3
v 0.2 0.6 -0.3
v 0.4 0.6 -0.3
v 0.5 0.6 -0.3
v -0.4 0.6 -0.4
v -0.3 0.6 -0.4
v 0.2 0.6 -0.4
v 0.3 0.6 -0.4
v 0.4 0.6 -0.4
v -0.3 0.6 -0.5
v -0.2 0.6 -0.5
v 0.1 0.6 -0.5
v 0.2 0.6 -0.5
v 0.3 0.6 -0.5
v -0.2 0.6 -0.6
v 0.1 0.6 -0.6
v 0.2 0.6 -0.6
v -0.2 0.7 0.5
v -0.1 0.7 0.5
v 0.1 0.7 0.5
v 0.2 0.7 0.5
v -0.3 0.7 0.4
v -0.2 0.7 0.4
v -0.1 0.7 0.4
v 0.1 0.7 0.4
v 0.2 0.7 0.4
v 0.3 0.7 0.4
v -0.4 0.7 0.3
v -0.3 0.7 0.3
v -0.2 0.7 0.3
v 0.2 0.7 0.3
v 0.3 0.7 0.3
v 0.4 0.7 0.3
v -0.5 0.7 0.2
v -0.4 0.7 0.2
v -0.3 0.7 0.2
v 0.3 0.7 0.2
v 0.4 0.7 0.2
v 0.5 0.7 0.2
v -0.4 0.7 0.1
v 0.4 0.7 0.1
v -0.5 0.7 -0.2
v -0.4 0.7 -0.2
v -0.5 0.7 -0.3
v -0.4 0.7 -0.3
v -0.3 0.7 -0.3
v 0.3 0.7 -0.3
v 0.4 0.7 -0.3
v 0.5 0.7 -0.3
v -0.4 0.7 -0.4
v -0.3 0.7 -0.4
v -0.2 0.7 -0.4
v 0.2 0.7 -0.4
v 0.3 0.7 -0.4
v 0.4 0.7 -0.4
v -0.3 0.7 -0.5
v -0.2 0.7 -0.5
v 0.1 0.7 -0.5
v 0.2 0.7 -0.5
v 0.3 0.7 -0.5
v -0.2 0.7 -0.6
v 0.1 0.7 -0.6
v 0.2 0.7 -0.6
v -0.2 0.8 0.4
v 0.2 0.8 0.4
v -0.3 0.8 0.3
v -0.2 0.8 0.3
v 0.2 0.8 0.3
v 0.3 0.8 0.3
v -0.4 0.8 0.2
v -0.3 0.8 0.2
v -0.2 0.8 0.2
v 0.2 0.8 0.2
v 0.3 0.8 0.2
v 0.4 0.8 0.2
v -0.4 0.8 0.1
v -0.3 0.8 0.1
v 0.3 0.8 0.1
v 0.4 0.8 0.1
v -0.4 0.8 -0.2
v -0.3 0.8 -0.2
v 0.3 0.8 -0.2
v 0.4 0.8 -0.2
v -0.4 0.8 -0.3
v -0.3 0.8 -0.3
v -0.2 0.8 -0.3
v 0.2 0.8 -0.3
v 0.3 0.8 -0.3
v 0.4 0.8 -0.3
v -0.3 0.8 -0.4
v -0.2 0.8 -0.4
v 0.1 0.8 -0.4
v 0.2 0.8 -0.4
v 0.3 0.8 -0.4
v -0.2 0.8 -0.5
v 0.1 0.8 -0.5
v 0.2 0.8 -0.5
v -0.2 0.9 0.3
v 0.2 0.9 0.3
v -0.3 0.9 0.2
v -0.2 0.9 0.2
v 0 0.9 0.2
v 0.1 0.9 0.2
v 0.2 0.9 0.2
v 0.3 0.9 0.2
v -0.4 0.9 0.1
v -0.3 0.9 0.1
v -0.2 0.9 0.1
v 0.2 0.9 0.1
v 0.3 0.9 0.1
v 0.4 0.9 0.1
v 0.3 0.9 0
v 0.4 0.9 0
v -0.4 0.9 -0.2
v -0.3 0.9 -0.2
v -0.2 0.9 -0.2
v 0.2 0.9 -0.2
v 0.3 0.9 -0.2
v 0.4 0.9 -0.2
v -0.3 0.9 -0.3
v -0.2 0.9 -0.3
v -0.1 0.9 -0.3
v 0.1 0.9 -0.3
v 0.2 0.9 -0.3
v 0.3 0.9 -0.3
v -0.2 0.9 -0.4
v 0.2 0.9 -0.4
v -0.2 1 0.2
v -0.1 1 0.2
v 0.1 1 0.2
v 0.2 1 0.2
v -0.3 1 0.1
v -0.2 1 0.1
v -0.1 1 0.1
v 0.1 1 0.1
v 0.2 1 0.1
v 0.3 1 0.1
v 0.2 1 0
v -0.3 1 -0.2
v -0.2 1 -0.2
v -0.1 1 -0.2
v 0.1 1 -0.2
v 0.2 1 -0.2
v 0.3 1 -0.2
v -0.2 1 -0.3
v -0.1 1 -0.3
v 0.1 1 -0.3
v 0.2 1 -0.3
v -0.1 1.1 0.2
v 0.1 1.1 0.2
v -0.2 1.1 0.1
v -0.1 1.1 0.1
v 0.1 1.1 0.1
v 0.2 1.1 0.1
v 0.1 1.1 0
v 0.2 1.1 0
v -0.2 1.1 -0.2
v -0.1 1.1 -0.2
v 0 1.1 -0.2
v 0.1 1.1 -0.2
v 0.2 1.1 -0.2
v -0.1 1.1 -0.3
v 0 1.1 -0.3
v 0.1 1.1 -0.3
v -0.1 1.2 0.1
v 0.1 1.2 0.1
v -0.1 1.2 -0.2
v 0.1 1.2 -0.2

# faces
f 4/2/1 2/2/1 1/2/1
f 5/3/1 3/3/1 2/3/1
f 5/2/1 2/2/1 4/2/1
f 6/3/1 3/3/1 5/3/1
f 11/2/1 8/2/1 7/2/1
f 12/2/1 8/2/1 11/2/1
f 15/3/1 10/3/1 9/3/1
f 16/3/1 10/3/1 15/3/1
f 17/3/1 13/3/1 12/3/1
f 18/2/1 14/2/1 13/2/1
f 18/3/1 13/3/1 17/3/1
f 19/3/1 15/3/1 14/3/1
f 19/2/1 14/2/1 18/2/1
f 20/3/1 15/3/1 19/3/1
f 21/2/1 19/2/1 18/2/1
f 22/2/1 19/2/1 21/2/1
f 27/1/1 24/1/1 23/1/1
f 28/1/1 24/1/1 27/1/1
f 31/2/1 26/2/1 25/2/1
f 32/2/1 26/2/1 31/2/1
f 35/2/1 30/2/1 29/2/1
f 36/2/1 30/2/1 35/2/1
f 37/3/1 33/3/1 32/3/1
f 38/3/1 33/3/1 37/3/1
f 41/3/1 35/3/1 34/3/1
f 42/3/1 35/3/1 41/3/1
f 43/3/1 39/3/1 38/3/1
f 44/3/1 39/3/1 43/3/1
f 45/2/1 41/2/1 40/2/1
f 46/2/1 41/2/1 45/2/1
f 47/2/1 45/2/1 44/2/1
f 48/2/1 45/2/1 47/2/1
f 55/1/1 50/1/1 49/1/1
f 56/1/1 50/1/1 55/1/1
f 57/1/1 52/1/1 51/1/1
f 58/1/1 52/1/1 57/1/1
f 61/2/1 54/2/1 53/2/1
f 62/2/1 54/2/1 61/2/1
f 65/2/1 60/2/1 59/2/1
f 66/2/1 60/2/1 65/2/1
f 67/2/1 63/2/1 62/2/1
f 68/2/1 63/2/1 67/2/1
f 71/2/1 65/2/1 64/2/1
f 72/2/1 65/2/1 71/2/1
f 73/2/1 69/2/1 68/2/1
f 74/2/1 69/2/1 73/2/1
f 77/2/1 71/2/1 70/2/1
f 78/2/1 71/2/1 77/2/1
f 79/2/1 75/2/1 74/2/1
f 80/2/1 75/2/1 79/2/1
f 81/2/1 77/2/1 76/2/1
f 82/2/1 77/2/1 81/2/1
f 83/2/1 81/2/1 80/2/1
f 84/2/1 81/2/1 83/2/1
f 89/3/1 86/3/1 85/3/1
f 90/3/1 86/3/1 89/3/1
f 91/3/1 88/3/1 87/3/1
f 92/3/1 88/3/1 91/3/1
f 93/2/1 91/2/1 90/2/1
f 94/2/1 91/2/1 93/2/1
f 95/3/2 96/3/2 99/3/2
f 99/3/2 96/3/2 100/3/2
f 97/2/2 98/2/2 102/2/2
f 102/2/2 98/2/2 103/2/2
f 100/2/2 101/2/2 104/2/2
f 101/2/2 102/2/2 104/2/2
f 104/2/2 102/2/2 105/2/2
f 106/1/2 107/1/2 112/1/2
f 112/1/2 107/1/2 113/1/2
f 108/1/2 109/1/2 114/1/2
f 114/1/2 109/1/2 115/1/2
f 110/2/2 111/2/2 118/2/2
f 118/2/2 111/2/2 119/2/2
f 116/3/2 117/3/2 122/3/2
f 122/3/2 117/3/2 123/3/2
f 119/2/2 120/2/2 124/2/2
f 124/2/2 120/2/2 125/2/2
f 121/3/2 122/3/2 128/3/2
f 128/3/2 122/3/2 129/3/2
f 125/2/2 126/2/2 130/2/2
f 130/2/2 126/2/2 131/2/2
f 127/2/2 128/2/2 134/2/2
f 134/2/2 128/2/2 135/2/2
f 131/2/2 132/2/2 136/2/2
f 136/2/2 132/2/2 137/2/2
f 133/2/2 134/2/2 139/2/2
f 139/2/2 134/2/2 140/2/2
f 137/3/2 138/3/2 141/3/2
f 138/2/2 139/2/2 142/2/2
f 141/3/2 138/3/2 142/3/2
f 142/2/2 139/2/2 143/2/2
f 144/1/2 145/1/2 148/1/2
f 148/1/2 145/1/2 149/1/2
f 146/2/2 147/2/2 152/2/2
f 152/2/2 147/2/2 153/2/2
f 150/3/2 151/3/2 156/3/2
f 156/3/2 151/3/2 157/3/2
f 153/3/2 154/3/2 158/3/2
f 158/3/2 154/3/2 159/3/2
f 155/3/2 156/3/2 162/3/2
f 162/3/2 156/3/2 163/3/2
f 159/3/2 160/3/2 164/3/2
f 164/3/2 160/3/2 165/3/2
f 161/2/2 162/2/2 167/2/2
f 167/2/2 162/2/2 168/2/2
f 165/2/2 166/2/2 169/2/2
f 166/2/2 167/2/2 169/2/2
f 169/2/2 167/2/2 170/2/2
f 171/2/2 172/2/2 175/2/2
f 175/2/2 172/2/2 176/2/2
f 173/2/2 174/2/2 178/2/2
f 178/2/2 174/2/2 179/2/2
f 176/3/2 177/3/2 180/3/2
f 177/2/2 178/2/2 181/2/2
f 180/3/2 177/3/2 181/3/2
f 181/2/2 178/2/2 182/2/2
f 182/2/2 178/2/2 183/2/2
f 183/2/2 178/2/2 184/2/2
f 181/3/2 182/3/2 185/3/2
f 182/2/2 183/2/2 186/2/2
f 185/3/2 182/3/2 186/3/2
f 186/2/2 183/2/2 187/2/2
f 188/2/2 189/2/2 190/2/2
f 190/2/2 189/2/2 191/2/2
f 194/2/3 193/2/3 192/2/3
f 195/2/3 193/2/3 194/2/3
f 196/3/3 195/3/3 194/3/3
f 197/3/3 195/3/3 196/3/3
f 198/2/3 197/2/3 196/2/3
f 199/2/3 197/2/3 198/2/3
f 202/2/3 201/2/3 200/2/3
f 203/2/3 201/2/3 202/2/3
f 205/2/3 204/2/3 203/2/3
f 206/2/3 204/2/3 205/2/3
f 208/2/3 204/2/3 206/2/3
f 209/2/3 204/2/3 208/2/3
f 210/2/3 208/2/3 207/2/3
f 211/2/3 208/2/3 210/2/3
f 214/2/3 213/2/3 212/2/3
f 215/2/3 213/2/3 214/2/3
f 217/3/3 216/3/3 215/3/3
f 218/3/3 216/3/3 217/3/3
f 221/2/3 219/2/3 218/2/3
f 222/2/3 219/2/3 221/2/3
f 224/3/3 221/3/3 220/3/3
f 225/3/3 221/3/3 224/3/3
f 226/2/3 224/2/3 223/2/3
f 227/2/3 224/2/3 226/2/3
f 230/2/3 229/2/3 228/2/3
f 231/2/3 229/2/3 230/2/3
f 233/3/3 232/3/3 231/3/3
f 234/3/3 232/3/3 233/3/3
f 238/3/3 235/3/3 234/3/3
f 239/3/3 235/3/3 238/3/3
f 241/2/3 240/2/3 239/2/3
f 243/2/3 241/2/3 239/2/3
f 244/3/3 242/3/3 241/3/3
f 244/2/3 241/2/3 243/2/3
f 245/3/3 244/3/3 243/3/3
f 246/3/3 242/3/3 244/3/3
f 246/3/3 244/3/3 245/3/3
f 247/3/3 242/3/3 246/3/3
f 248/1/3 237/1/3 236/1/3
f 249/1/3 237/1/3 248/1/3
f 251/2/3 246/2/3 245/2/3
f 252/2/3 246/2/3 251/2/3
f 254/3/3 251/3/3 250/3/3
f 255/3/3 251/3/3 254/3/3
f 257/3/3 254/3/3 253/3/3
f 258/3/3 254/3/3 257/3/3
f 259/2/3 257/2/3 256/2/3
f 260/2/3 257/2/3 259/2/3
f 265/2/3 262/2/3 261/2/3
f 266/2/3 262/2/3 265/2/3
f 268/1/3 264/1/3 263/1/3
f 269/1/3 264/1/3 268/1/3
f 270/2/3 267/2/3 266/2/3
f 271/2/3 267/2/3 270/2/3
f 273/2/3 272/2/3 271/2/3
f 274/2/3 272/2/3 273/2/3
f 277/2/3 275/2/3 274/2/3
f 278/2/3 275/2/3 277/2/3
f 282/3/3 277/3/3 276/3/3
f 283/3/3 277/3/3 282/3/3
f 284/1/3 280/1/3 279/1/3
f 285/1/3 280/1/3 284/1/3
f 287/2/3 282/2/3 281/2/3
f 288/2/3 282/2/3 287/2/3
f 289/3/3 287/3/3 286/3/3
f 290/3/3 287/3/3 289/3/3
f 291/2/4 292/2/4 295/2/4
f 295/2/4 292/2/4 296/2/4
f 293/1/4 294/1/4 298/1/4
f 298/1/4 294/1/4 299/1/4
f 296/2/4 297/2/4 300/2/4
f 300/2/4 297/2/4 301/2/4
f 301/2/4 302/2/4 303/2/4
f 303/2/4 302/2/4 304/2/4
f 304/2/4 305/2/4 306/2/4
f 306/2/4 305/2/4 308/2/4
f 308/2/4 305/2/4 309/2/4
f 307/2/4 308/2/4 313/2/4
f 313/2/4 308/2/4 314/2/4
f 310/1/4 311/1/4 315/1/4
f 315/1/4 311/1/4 316/1/4
f 312/2/4 313/2/4 318/2/4
f 318/2/4 313/2/4 319/2/4
f 317/2/4 318/2/4 320/2/4
f 320/2/4 318/2/4 321/2/4
f 322/3/4 323/3/4 324/3/4
f 324/3/4 323/3/4 325/3/4
f 325/3/4 326/3/4 327/3/4
f 327/3/4 326/3/4 328/3/4
f 328/2/4 329/2/4 332/2/4
f 332/2/4 329/2/4 333/2/4
f 333/2/4 334/2/4 335/2/4
f 335/2/4 334/2/4 336/2/4
f 335/3/4 336/3/4 338/3/4
f 336/3/4 337/3/4 338/3/4
f 338/3/4 337/3/4 339/3/4
f 335/3/4 338/3/4 340/3/4
f 338/2/4 339/2/4 341/2/4
f 340/3/4 338/3/4 341/3/4
f 341/2/4 339/2/4 342/2/4
f 330/1/4 331/1/4 343/1/4
f 343/1/4 331/1/4 344/1/4
f 340/2/4 341/2/4 346/2/4
f 346/2/4 341/2/4 347/2/4
f 345/2/4 346/2/4 349/2/4
f 349/2/4 346/2/4 350/2/4
f 348/2/4 349/2/4 352/2/4
f 352/2/4 349/2/4 353/2/4
f 351/2/4 352/2/4 354/2/4
f 354/2/4 352/2/4 355/2/4
f 356/3/4 357/3/4 358/3/4
f 358/3/4 357/3/4 359/3/4
f 359/3/4 360/3/4 361/3/4
f 361/3/4 360/3/4 362/3/4
f 362/2/4 363/2/4 364/2/4
f 364/2/4 363/2/4 366/2/4
f 366/2/4 363/2/4 367/2/4
f 365/3/4 366/3/4 369/3/4
f 369/3/4 366/3/4 370/3/4
f 368/2/4 369/2/4 371/2/4
f 371/2/4 369/2/4 372/2/4
f 373/2/4 374/2/4 375/2/4
f 375/2/4 374/2/4 376/2/4
f 376/2/4 377/2/4 378/2/4
f 378/2/4 377/2/4 379/2/4
f 378/3/4 379/3/4 381/3/4
f 381/3/4 379/3/4 382/3/4
f 380/3/4 381/3/4 383/3/4
f 383/3/4 381/3/4 384/3/4
f 385/2/4 386/2/4 387/2/4
f 387/2/4 386/2/4 388/2/4
f 387/3/4 388/3/4 389/3/4
f 389/3/4 388/3/4 390/3/4
f 394/1/5 392/1/5 391/1/5
f 395/1/5 392/1/5 394/1/5
f 397/1/5 394/1/5 393/1/5
f 397/1/5 396/1/5 395/1/5
f 397/1/5 395/1/5 394/1/5
f 398/1/5 396/1/5 397/1/5
f 399/1/5 396/1/5 398/1/5
f 400/1/5 396/1/5 399/1/5
f 401/1/5 399/1/5 398/1/5
f 402/1/5 399/1/5 401/1/5
f 408/2/5 404/2/5 403/2/5
f 409/3/5 405/3/5 404/3/5
f 410/2/5 406/2/5 405/2/5
f 410/3/5 405/3/5 409/3/5
f 411/2/5 406/2/5 410/2/5
f 414/2/5 408/2/5 407/2/5
f 415/3/5 409/3/5 404/3/5
f 415/2/5 404/2/5 408/2/5
f 415/2/5 408/2/5 414/2/5
f 416/2/5 412/2/5 411/2/5
f 416/3/5 409/3/5 415/3/5
f 416/2/5 410/2/5 409/2/5
f 416/2/5 411/2/5 410/2/5
f 417/2/5 412/2/5 416/2/5
f 420/2/5 414/2/5 413/2/5
f 420/2/5 418/2/5 417/2/5
f 420/2/5 417/2/5 416/2/5
f 420/2/5 416/2/5 415/2/5
f 420/2/5 415/2/5 414/2/5
f 421/2/5 418/2/5 420/2/5
f 422/2/5 418/2/5 421/2/5
f 423/2/5 418/2/5 422/2/5
f 425/2/5 420/2/5 419/2/5
f 425/2/5 421/2/5 420/2/5
f 426/2/5 421/2/5 425/2/5
f 427/2/5 424/2/5 423/2/5
f 427/2/5 423/2/5 422/2/5
f 428/2/5 424/2/5 427/2/5
f 429/2/5 425/2/5 419/2/5
f 430/2/5 425/2/5 429/2/5
f 431/2/5 425/2/5 430/2/5
f 434/2/5 424/2/5 428/2/5
f 435/3/5 430/3/5 429/3/5
f 436/2/5 432/2/5 431/2/5
f 436/3/5 430/3/5 435/3/5
f 436/2/5 431/2/5 430/2/5
f 437/2/5 432/2/5 436/2/5
f 438/2/5 432/2/5 437/2/5
f 439/2/5 434/2/5 433/2/5
f 440/2/5 424/2/5 434/2/5
f 440/2/5 434/2/5 439/2/5
f 441/2/5 424/2/5 440/2/5
f 442/3/5 437/3/5 436/3/5
f 443/2/5 438/2/5 437/2/5
f 443/3/5 437/3/5 442/3/5
f 443/2/5 439/2/5 438/2/5
f 443/2/5 440/2/5 439/2/5
f 444/2/5 440/2/5 443/2/5
f 445/2/5 440/2/5 444/2/5
f 446/2/5 440/2/5 445/2/5
f 447/2/5 444/2/5 443/2/5
f 448/2/5 444/2/5 447/2/5
f 449/2/5 444/2/5 448/2/5
f 450/3/5 445/3/5 444/3/5
f 450/2/5 444/2/5 449/2/5
f 451/3/5 445/3/5 450/3/5
f 452/2/5 449/2/5 448/2/5
f 453/3/5 450/3/5 449/3/5
f 453/2/5 449/2/5 452/2/5
f 454/3/5 450/3/5 453/3/5
f 455/2/6 456/2/6 460/2/6
f 456/3/6 457/3/6 461/3/6
f 460/2/6 456/2/6 461/2/6
f 457/2/6 458/2/6 462/2/6
f 461/3/6 457/3/6 462/3/6
f 462/2/6 458/2/6 463/2/6
f 459/2/6 460/2/6 466/2/6
f 466/2/6 460/2/6 467/2/6
f 463/2/6 464/2/6 468/2/6
f 468/2/6 464/2/6 469/2/6
f 465/2/6 466/2/6 472/2/6
f 472/2/6 466/2/6 473/2/6
f 469/2/6 470/2/6 474/2/6
f 474/2/6 470/2/6 475/2/6
f 471/2/6 472/2/6 477/2/6
f 475/2/6 476/2/6 478/2/6
f 471/2/6 477/2/6 479/2/6
f 479/2/6 477/2/6 480/2/6
f 479/3/6 480/3/6 481/3/6
f 481/3/6 480/3/6 482/3/6
f 478/2/6 476/2/6 485/2/6
f 485/2/6 476/2/6 486/2/6
f 482/3/6 483/3/6 487/3/6
f 487/3/6 483/3/6 488/3/6
f 484/2/6 485/2/6 491/2/6
f 491/2/6 485/2/6 492/2/6
f 488/2/6 489/2/6 493/2/6
f 493/2/6 489/2/6 494/2/6
f 490/3/6 491/3/6 496/3/6
f 496/3/6 491/3/6 497/3/6
f 494/2/6 495/2/6 498/2/6
f 495/3/6 496/3/6 499/3/6
f 498/2/6 495/2/6 499/2/6
f 499/3/6 496/3/6 500/3/6
f 501/2/6 502/2/6 504/2/6
f 504/2/6 502/2/6 505/2/6
f 503/3/6 504/3/6 508/3/6
f 508/3/6 504/3/6 509/3/6
f 505/3/6 506/3/6 510/3/6
f 510/3/6 506/3/6 511/3/6
f 507/3/6 508/3/6 513/3/6
f 513/3/6 508/3/6 514/3/6
f 511/3/6 512/3/6 515/3/6
f 515/3/6 512/3/6 516/3/6
f 517/3/6 518/3/6 521/3/6
f 521/3/6 518/3/6 522/3/6
f 519/2/6 520/2/6 525/2/6
f 525/2/6 520/2/6 526/2/6
f 522/3/6 523/3/6 527/3/6
f 527/3/6 523/3/6 528/3/6
f 524/3/6 525/3/6 530/3/6
f 530/3/6 525/3/6 531/3/6
f 528/2/6 529/2/6 532/2/6
f 529/3/6 530/3/6 533/3/6
f 532/2/6 529/2/6 533/2/6
f 533/3/6 530/3/6 534/3/6
f 535/2/6 536/2/6 538/2/6
f 538/2/6 536/2/6 539/2/6
f 539/2/6 536/2/6 540/2/6
f 540/2/6 536/2/6 541/2/6
f 537/3/6 538/3/6 544/3/6
f 544/3/6 538/3/6 545/3/6
f 541/3/6 542/3/6 546/3/6
f 546/3/6 542/3/6 547/3/6
f 547/3/6 548/3/6 549/3/6
f 549/3/6 548/3/6 550/3/6
f 543/2/6 544/2/6 551/2/6
f 551/2/6 544/2/6 552/2/6
f 549/2/6 550/2/6 555/2/6
f 555/2/6 550/2/6 556/2/6
f 552/2/6 553/2/6 557/2/6
f 557/2/6 553/2/6 558/2/6
f 554/2/6 555/2/6 561/2/6
f 561/2/6 555/2/6 562/2/6
f 559/2/6 560/2/6 563/2/6
f 560/2/6 561/2/6 563/2/6
f 558/2/6 559/2/6 563/2/6
f 563/2/6 561/2/6 564/2/6
f 565/2/6 566/2/6 570/2/6
f 570/2/6 566/2/6 571/2/6
f 567/2/6 568/2/6 572/2/6
f 572/2/6 568/2/6 573/2/6
f 573/2/6 574/2/6 575/2/6
f 569/2/6 570/2/6 576/2/6
f 576/2/6 570/2/6 577/2/6
f 575/2/6 574/2/6 580/2/6
f 580/2/6 574/2/6 581/2/6
f 577/2/6 578/2/6 582/2/6
f 582/2/6 578/2/6 583/2/6
f 579/2/6 580/2/6 584/2/6
f 584/2/6 580/2/6 585/2/6
f 586/3/6 587/3/6 589/3/6
f 589/3/6 587/3/6 590/3/6
f 590/3/6 591/3/6 592/3/6
f 592/3/6 591/3/6 593/3/6
f 588/2/6 589/2/6 594/2/6
f 594/2/6 589/2/6 595/2/6
f 592/2/6 593/2/6 597/2/6
f 597/2/6 593/2/6 598/2/6
f 595/3/6 596/3/6 599/3/6
f 596/2/6 597/2/6 600/2/6
f 599/3/6 596/3/6 600/3/6
f 600/2/6 597/2/6 601/2/6
f 602/2/6 603/2/6 604/2/6
f 604/2/6 603/2/6 605/2/6
