# MagicaVoxel @ Ephtracy

# group
o 

# material
mtllib Tree.mtl
usemtl palette

# normals
vn -1 0 0
vn 1 0 0
vn 0 0 1
vn 0 0 -1
vn 0 -1 0
vn 0 1 0

# texcoords
vt 0.708984 0.5
vt 0.712891 0.5
vt 0.794922 0.5
vt 0.798828 0.5

# verts
v -1 0 1
v -1 0 0.7
v -1 0 0.6
v -1 0 -0.1
v -1 0 -0.2
v -1 0 -0.6
v -1 0 -0.7
v -1 0 -1
v -1 0.1 -0.8
v -1 0.1 -0.9
v -1 0.2 0.1
v -1 0.2 -0.1
v -1 0.3 0.5
v -1 0.3 0.4
v -1 0.3 -0.3
v -1 0.3 -0.5
v -1 0.4 0.9
v -1 0.4 0.8
v -1 0.5 0.1
v -1 0.5 -0.1
v -1 0.5 -0.6
v -1 0.5 -0.7
v -1 0.6 -0.1
v -1 0.6 -0.2
v -1 0.8 0.7
v -1 0.8 0.6
v -1 0.8 0
v -1 0.8 -0.2
v -1 0.9 0.9
v -1 0.9 0.8
v -1 1 0.8
v -1 1 0.7
v -1 1.1 0.8
v -1 1.1 0.7
v -1 1.1 0.6
v -1 1.1 0.5
v -1 1.1 0.2
v -1 1.1 0.1
v -1 1.2 1
v -1 1.2 0.9
v -1 1.2 0
v -1 1.2 -0.2
v -1 1.2 -0.9
v -1 1.2 -1
v -1 1.3 -0.6
v -1 1.3 -0.8
v -1 1.5 0.6
v -1 1.5 0.5
v -1 1.5 0
v -1 1.5 -0.1
v -1 1.6 0.2
v -1 1.6 0.1
v -1 1.6 -0.7
v -1 1.6 -0.8
v -1 1.7 -0.8
v -1 1.7 -0.9
v -1 1.8 0
v -1 1.8 -0.1
v -1 1.8 -0.3
v -1 1.8 -0.5
v -1 1.9 1
v -1 1.9 0.9
v -1 1.9 0.5
v -1 1.9 0.4
v -1 1.9 -0.6
v -1 1.9 -0.7
v -1 1.9 -0.9
v -1 1.9 -1
v -1 2 1
v -1 2 -1
v 1 0 1
v 1 0 0.9
v 1 0 0.7
v 1 0 0.6
v 1 0 0.2
v 1 0 0.1
v 1 0 -0.1
v 1 0 -0.2
v 1 0 -0.6
v 1 0 -0.7
v 1 0 -1
v 1 0.1 0.6
v 1 0.1 0.5
v 1 0.1 -0.8
v 1 0.1 -0.9
v 1 0.2 0.1
v 1 0.2 -0.1
v 1 0.3 0.3
v 1 0.3 0.2
v 1 0.3 -0.3
v 1 0.3 -0.5
v 1 0.4 0.9
v 1 0.4 0.8
v 1 0.5 0.1
v 1 0.5 -0.1
v 1 0.5 -0.6
v 1 0.5 -0.7
v 1 0.6 -0.1
v 1 0.6 -0.2
v 1 0.7 0.4
v 1 0.7 0.3
v 1 0.7 0.2
v 1 0.8 0.7
v 1 0.8 0.6
v 1 0.8 0
v 1 0.8 -0.2
v 1 0.9 0.9
v 1 0.9 0.8
v 1 1 0.8
v 1 1 0.7
v 1 1 0.5
v 1 1 0.4
v 1 1 0.2
v 1 1 0.1
v 1 1.1 0.8
v 1 1.1 0.7
v 1 1.1 0.5
v 1 1.1 0.4
v 1 1.1 0.2
v 1 1.1 0.1
v 1 1.2 0
v 1 1.2 -0.2
v 1 1.3 0.4
v 1 1.3 0.3
v 1 1.3 -0.6
v 1 1.3 -0.8
v 1 1.5 0
v 1 1.5 -0.1
v 1 1.6 0.2
v 1 1.6 0.1
v 1 1.6 -0.7
v 1 1.6 -0.8
v 1 1.7 0.6
v 1 1.7 0.5
v 1 1.7 -0.8
v 1 1.7 -0.9
v 1 1.8 1
v 1 1.8 0.9
v 1 1.8 0
v 1 1.8 -0.1
v 1 1.8 -0.3
v 1 1.8 -0.5
v 1 1.9 -0.6
v 1 1.9 -0.7
v 1 2 1
v 1 2 -1
v -1 0 1
v -1 1.2 1
v -1 1.9 1
v -1 2 1
v -0.9 1.2 1
v -0.9 1.9 1
v -0.8 0.1 1
v -0.8 0.9 1
v -0.8 1.2 1
v -0.8 1.3 1
v -0.7 0.1 1
v -0.7 0.9 1
v -0.7 1.2 1
v -0.7 1.3 1
v -0.7 1.6 1
v -0.6 0.9 1
v -0.6 1.4 1
v -0.6 1.6 1
v -0.6 1.8 1
v -0.5 0.8 1
v -0.5 1.4 1
v -0.5 1.8 1
v -0.3 0 1
v -0.3 0.8 1
v -0.3 1.4 1
v -0.3 1.8 1
v -0.2 0 1
v -0.2 1.8 1
v -0.1 0.8 1
v -0.1 2 1
v 0 0.8 1
v 0 0.9 1
v 0 1.6 1
v 0 2 1
v 0.1 0 1
v 0.1 0.9 1
v 0.1 1.6 1
v 0.2 0 1
v 0.2 0.9 1
v 0.3 0 1
v 0.3 1.8 1
v 0.4 0 1
v 0.4 1.8 1
v 0.6 0.7 1
v 0.6 1.3 1
v 0.6 1.5 1
v 0.6 1.8 1
v 0.7 0.7 1
v 0.7 0.9 1
v 0.7 1.3 1
v 0.7 1.5 1
v 0.7 1.8 1
v 0.7 1.9 1
v 0.8 0 1
v 0.8 0.9 1
v 0.9 1.8 1
v 0.9 1.9 1
v 1 0 1
v 1 1.8 1
v 1 2 1
v -1 0 -1
v -1 1.2 -1
v -1 1.9 -1
v -1 2 -1
v -0.9 1.2 -1
v -0.9 1.9 -1
v -0.8 0.4 -1
v -0.8 1.6 -1
v -0.7 0.4 -1
v -0.7 1.4 -1
v -0.7 1.6 -1
v -0.7 1.8 -1
v -0.6 1.5 -1
v -0.6 1.8 -1
v -0.5 0.5 -1
v -0.5 1.4 -1
v -0.5 1.5 -1
v -0.4 0.3 -1
v -0.4 0.5 -1
v -0.4 0.7 -1
v -0.4 1.4 -1
v -0.3 0.3 -1
v -0.3 0.7 -1
v -0.3 0.9 -1
v -0.3 1.2 -1
v -0.2 0.4 -1
v -0.2 0.9 -1
v -0.2 1.2 -1
v -0.2 1.8 -1
v -0.1 0 -1
v -0.1 0.4 -1
v -0.1 1.4 -1
v -0.1 1.8 -1
v 0 0 -1
v 0 1.4 -1
v 0.1 0.1 -1
v 0.1 0.3 -1
v 0.1 0.4 -1
v 0.1 1.8 -1
v 0.2 0.4 -1
v 0.2 0.9 -1
v 0.2 1.2 -1
v 0.2 1.8 -1
v 0.3 0 -1
v 0.3 0.1 -1
v 0.3 0.3 -1
v 0.3 0.4 -1
v 0.3 0.9 -1
v 0.3 1.2 -1
v 0.3 1.7 -1
v 0.3 2 -1
v 0.4 0 -1
v 0.4 0.4 -1
v 0.4 0.5 -1
v 0.4 1.4 -1
v 0.5 0.5 -1
v 0.5 1.4 -1
v 0.5 1.7 -1
v 0.5 2 -1
v 0.6 1.2 -1
v 0.6 1.8 -1
v 0.7 0 -1
v 0.7 1.2 -1
v 0.7 1.8 -1
v 0.7 1.9 -1
v 0.8 0 -1
v 0.8 1.9 -1
v 1 0 -1
v 1 2 -1
v -1 0 1
v -0.3 0 1
v -0.2 0 1
v 0.1 0 1
v 0.2 0 1
v 0.3 0 1
v 0.4 0 1
v 0.8 0 1
v 1 0 1
v -0.9 0 0.9
v -0.3 0 0.9
v -0.2 0 0.9
v 0.1 0 0.9
v 0.2 0 0.9
v 0.3 0 0.9
v 0.4 0 0.9
v 0.8 0 0.9
v 0.9 0 0.9
v 1 0 0.9
v -0.8 0 0.8
v 0.8 0 0.8
v -1 0 0.7
v -0.9 0 0.7
v -0.7 0 0.7
v 0.7 0 0.7
v 0.9 0 0.7
v 1 0 0.7
v -1 0 0.6
v -0.9 0 0.6
v -0.6 0 0.6
v 0.6 0 0.6
v 0.9 0 0.6
v 1 0 0.6
v -0.5 0 0.5
v 0.5 0 0.5
v -0.4 0 0.4
v 0.4 0 0.4
v -0.3 0 0.3
v 0.3 0 0.3
v -0.2 0 0.2
v 0.2 0 0.2
v 0.9 0 0.2
v 1 0 0.2
v 0.9 0 0.1
v 1 0 0.1
v -1 0 -0.1
v -0.9 0 -0.1
v 0.9 0 -0.1
v 1 0 -0.1
v -1 0 -0.2
v -0.9 0 -0.2
v -0.2 0 -0.2
v 0.2 0 -0.2
v 0.9 0 -0.2
v 1 0 -0.2
v -0.3 0 -0.3
v 0.3 0 -0.3
v -0.4 0 -0.4
v 0.4 0 -0.4
v -0.5 0 -0.5
v 0.5 0 -0.5
v -1 0 -0.6
v -0.9 0 -0.6
v -0.6 0 -0.6
v 0.6 0 -0.6
v 0.9 0 -0.6
v 1 0 -0.6
v -1 0 -0.7
v -0.9 0 -0.7
v -0.7 0 -0.7
v 0.7 0 -0.7
v 0.9 0 -0.7
v 1 0 -0.7
v -0.8 0 -0.8
v 0.8 0 -0.8
v -0.9 0 -0.9
v -0.1 0 -0.9
v 0 0 -0.9
v 0.3 0 -0.9
v 0.4 0 -0.9
v 0.7 0 -0.9
v 0.8 0 -0.9
v 0.9 0 -0.9
v -1 0 -1
v -0.1 0 -1
v 0 0 -1
v 0.3 0 -1
v 0.4 0 -1
v 0.7 0 -1
v 0.8 0 -1
v 1 0 -1
v -1 2 1
v -0.1 2 1
v 0 2 1
v 1 2 1
v -0.9 2 0.9
v -0.1 2 0.9
v 0 2 0.9
v 0.9 2 0.9
v -0.8 2 0.8
v 0.8 2 0.8
v -0.7 2 0.7
v 0.7 2 0.7
v -0.6 2 0.6
v 0.6 2 0.6
v -0.5 2 0.5
v 0.5 2 0.5
v -0.4 2 0.4
v 0.4 2 0.4
v -0.3 2 0.3
v 0.3 2 0.3
v -0.2 2 0.2
v 0.2 2 0.2
v -0.2 2 -0.2
v 0.2 2 -0.2
v -0.3 2 -0.3
v 0.3 2 -0.3
v -0.4 2 -0.4
v 0.4 2 -0.4
v -0.5 2 -0.5
v 0.5 2 -0.5
v -0.6 2 -0.6
v 0.6 2 -0.6
v -0.7 2 -0.7
v 0.7 2 -0.7
v -0.8 2 -0.8
v 0.8 2 -0.8
v -0.9 2 -0.9
v 0.3 2 -0.9
v 0.5 2 -0.9
v 0.9 2 -0.9
v -1 2 -1
v 0.3 2 -1
v 0.5 2 -1
v 1 2 -1

# faces
f 9/3/1 8/3/1 7/3/1
f 10/3/1 8/3/1 9/3/1
f 11/3/1 4/3/1 3/3/1
f 12/4/1 5/4/1 4/4/1
f 12/3/1 4/3/1 11/3/1
f 13/3/1 11/3/1 3/3/1
f 14/3/1 11/3/1 13/3/1
f 15/3/1 6/3/1 5/3/1
f 16/3/1 6/3/1 15/3/1
f 17/3/1 2/3/1 1/3/1
f 18/3/1 2/3/1 17/3/1
f 19/3/1 11/3/1 14/3/1
f 19/4/1 12/4/1 11/4/1
f 20/4/1 5/4/1 12/4/1
f 20/4/1 12/4/1 19/4/1
f 21/3/1 6/3/1 16/3/1
f 21/4/1 7/4/1 6/4/1
f 22/3/1 9/3/1 7/3/1
f 22/4/1 7/4/1 21/4/1
f 23/4/1 5/4/1 20/4/1
f 23/3/1 20/3/1 19/3/1
f 24/3/1 15/3/1 5/3/1
f 24/4/1 5/4/1 23/4/1
f 25/4/1 3/4/1 2/4/1
f 25/3/1 2/3/1 18/3/1
f 26/3/1 13/3/1 3/3/1
f 26/4/1 3/4/1 25/4/1
f 27/3/1 24/3/1 23/3/1
f 27/3/1 23/3/1 19/3/1
f 28/3/1 15/3/1 24/3/1
f 28/3/1 24/3/1 27/3/1
f 29/4/1 18/4/1 17/4/1
f 29/3/1 17/3/1 1/3/1
f 30/3/1 25/3/1 18/3/1
f 30/4/1 18/4/1 29/4/1
f 30/3/1 26/3/1 25/3/1
f 31/3/1 30/3/1 29/3/1
f 31/3/1 26/3/1 30/3/1
f 32/3/1 26/3/1 31/3/1
f 33/3/1 31/3/1 29/3/1
f 33/4/1 32/4/1 31/4/1
f 34/3/1 26/3/1 32/3/1
f 34/4/1 32/4/1 33/4/1
f 35/3/1 13/3/1 26/3/1
f 35/3/1 26/3/1 34/3/1
f 36/4/1 14/4/1 13/4/1
f 36/3/1 13/3/1 35/3/1
f 37/3/1 27/3/1 19/3/1
f 37/3/1 19/3/1 14/3/1
f 38/3/1 27/3/1 37/3/1
f 39/3/1 34/3/1 33/3/1
f 39/3/1 29/3/1 1/3/1
f 39/3/1 35/3/1 34/3/1
f 39/3/1 33/3/1 29/3/1
f 40/3/1 35/3/1 39/3/1
f 41/3/1 27/3/1 38/3/1
f 41/4/1 28/4/1 27/4/1
f 42/3/1 15/3/1 28/3/1
f 42/4/1 28/4/1 41/4/1
f 43/3/1 8/3/1 10/3/1
f 43/4/1 10/4/1 9/4/1
f 44/3/1 8/3/1 43/3/1
f 45/3/1 22/3/1 21/3/1
f 45/3/1 21/3/1 16/3/1
f 46/3/1 9/3/1 22/3/1
f 46/3/1 22/3/1 45/3/1
f 46/4/1 44/4/1 43/4/1
f 46/4/1 43/4/1 9/4/1
f 47/4/1 36/4/1 35/4/1
f 47/3/1 35/3/1 40/3/1
f 48/4/1 14/4/1 36/4/1
f 48/4/1 36/4/1 47/4/1
f 49/3/1 42/3/1 41/3/1
f 49/3/1 41/3/1 38/3/1
f 50/3/1 42/3/1 49/3/1
f 51/4/1 38/4/1 37/4/1
f 51/3/1 37/3/1 14/3/1
f 52/3/1 49/3/1 38/3/1
f 52/4/1 38/4/1 51/4/1
f 53/4/1 46/4/1 45/4/1
f 54/4/1 44/4/1 46/4/1
f 54/4/1 46/4/1 53/4/1
f 55/3/1 54/3/1 53/3/1
f 55/4/1 44/4/1 54/4/1
f 56/4/1 44/4/1 55/4/1
f 57/3/1 49/3/1 52/3/1
f 57/4/1 50/4/1 49/4/1
f 57/3/1 52/3/1 51/3/1
f 58/3/1 42/3/1 50/3/1
f 58/4/1 50/4/1 57/4/1
f 59/3/1 15/3/1 42/3/1
f 59/3/1 42/3/1 58/3/1
f 59/4/1 16/4/1 15/4/1
f 60/3/1 45/3/1 16/3/1
f 60/4/1 16/4/1 59/4/1
f 61/4/1 40/4/1 39/4/1
f 62/3/1 47/3/1 40/3/1
f 62/4/1 40/4/1 61/4/1
f 62/3/1 48/3/1 47/3/1
f 63/4/1 14/4/1 48/4/1
f 63/3/1 48/3/1 62/3/1
f 64/3/1 59/3/1 58/3/1
f 64/4/1 14/4/1 63/4/1
f 64/3/1 58/3/1 57/3/1
f 64/3/1 51/3/1 14/3/1
f 64/3/1 60/3/1 59/3/1
f 64/3/1 57/3/1 51/3/1
f 65/4/1 53/4/1 45/4/1
f 65/3/1 60/3/1 64/3/1
f 65/3/1 45/3/1 60/3/1
f 66/3/1 55/3/1 53/3/1
f 66/4/1 53/4/1 65/4/1
f 66/3/1 56/3/1 55/3/1
f 67/4/1 44/4/1 56/4/1
f 67/3/1 56/3/1 66/3/1
f 68/4/1 44/4/1 67/4/1
f 69/3/1 63/3/1 62/3/1
f 69/3/1 65/3/1 64/3/1
f 69/3/1 68/3/1 67/3/1
f 69/3/1 67/3/1 66/3/1
f 69/3/1 62/3/1 61/3/1
f 69/3/1 64/3/1 63/3/1
f 69/3/1 66/3/1 65/3/1
f 70/3/1 68/3/1 69/3/1
f 73/4/2 74/4/2 82/4/2
f 74/3/2 75/3/2 82/3/2
f 82/3/2 75/3/2 83/3/2
f 80/3/2 81/3/2 84/3/2
f 84/3/2 81/3/2 85/3/2
f 75/4/2 76/4/2 86/4/2
f 76/3/2 77/3/2 86/3/2
f 77/4/2 78/4/2 87/4/2
f 86/3/2 77/3/2 87/3/2
f 83/3/2 75/3/2 88/3/2
f 75/4/2 86/4/2 89/4/2
f 88/3/2 75/3/2 89/3/2
f 86/4/2 87/4/2 89/4/2
f 78/3/2 79/3/2 90/3/2
f 90/3/2 79/3/2 91/3/2
f 71/4/2 72/4/2 92/4/2
f 72/3/2 73/3/2 92/3/2
f 92/3/2 73/3/2 93/3/2
f 89/4/2 87/4/2 94/4/2
f 88/4/2 89/4/2 94/4/2
f 87/4/2 78/4/2 95/4/2
f 94/4/2 87/4/2 95/4/2
f 91/3/2 79/3/2 96/3/2
f 79/4/2 80/4/2 96/4/2
f 80/3/2 84/3/2 97/3/2
f 96/4/2 80/4/2 97/4/2
f 95/4/2 78/4/2 98/4/2
f 94/3/2 95/3/2 98/3/2
f 78/3/2 90/3/2 99/3/2
f 98/4/2 78/4/2 99/4/2
f 83/3/2 88/3/2 100/3/2
f 88/4/2 94/4/2 101/4/2
f 100/3/2 88/3/2 101/3/2
f 101/4/2 94/4/2 102/4/2
f 93/3/2 73/3/2 103/3/2
f 73/4/2 82/4/2 103/4/2
f 82/4/2 83/4/2 103/4/2
f 103/4/2 83/4/2 104/4/2
f 94/3/2 98/3/2 105/3/2
f 98/3/2 99/3/2 105/3/2
f 99/3/2 90/3/2 106/3/2
f 105/3/2 99/3/2 106/3/2
f 92/4/2 93/4/2 107/4/2
f 71/4/2 92/4/2 107/4/2
f 103/3/2 104/3/2 108/3/2
f 107/4/2 93/4/2 108/4/2
f 93/3/2 103/3/2 108/3/2
f 107/3/2 108/3/2 109/3/2
f 108/3/2 104/3/2 109/3/2
f 109/3/2 104/3/2 110/3/2
f 83/3/2 100/3/2 111/3/2
f 104/4/2 83/4/2 111/4/2
f 100/4/2 101/4/2 112/4/2
f 111/3/2 100/3/2 112/3/2
f 102/4/2 94/4/2 113/4/2
f 101/3/2 102/3/2 113/3/2
f 94/3/2 105/3/2 114/3/2
f 113/4/2 94/4/2 114/4/2
f 109/4/2 110/4/2 115/4/2
f 107/3/2 109/3/2 115/3/2
f 110/3/2 104/3/2 116/3/2
f 115/4/2 110/4/2 116/4/2
f 111/4/2 112/4/2 117/4/2
f 104/4/2 111/4/2 117/4/2
f 112/4/2 101/4/2 118/4/2
f 117/4/2 112/4/2 118/4/2
f 101/3/2 113/3/2 119/3/2
f 113/3/2 114/3/2 119/3/2
f 114/3/2 105/3/2 120/3/2
f 119/3/2 114/3/2 120/3/2
f 105/4/2 106/4/2 121/4/2
f 120/3/2 105/3/2 121/3/2
f 106/3/2 90/3/2 122/3/2
f 121/4/2 106/4/2 122/4/2
f 118/4/2 101/4/2 123/4/2
f 117/3/2 118/3/2 123/3/2
f 101/3/2 119/3/2 124/3/2
f 123/4/2 101/4/2 124/4/2
f 96/3/2 97/3/2 125/3/2
f 91/3/2 96/3/2 125/3/2
f 97/3/2 84/3/2 126/3/2
f 125/3/2 97/3/2 126/3/2
f 84/4/2 85/4/2 126/4/2
f 121/3/2 122/3/2 127/3/2
f 120/3/2 121/3/2 127/3/2
f 127/3/2 122/3/2 128/3/2
f 124/3/2 119/3/2 129/3/2
f 123/3/2 124/3/2 129/3/2
f 119/4/2 120/4/2 129/4/2
f 120/3/2 127/3/2 130/3/2
f 129/4/2 120/4/2 130/4/2
f 125/4/2 126/4/2 131/4/2
f 126/4/2 85/4/2 132/4/2
f 131/4/2 126/4/2 132/4/2
f 104/4/2 117/4/2 133/4/2
f 116/3/2 104/3/2 133/3/2
f 115/3/2 116/3/2 133/3/2
f 129/3/2 130/3/2 134/3/2
f 133/4/2 117/4/2 134/4/2
f 117/3/2 123/3/2 134/3/2
f 123/3/2 129/3/2 134/3/2
f 132/4/2 85/4/2 135/4/2
f 131/3/2 132/3/2 135/3/2
f 85/3/2 81/3/2 136/3/2
f 135/4/2 85/4/2 136/4/2
f 71/4/2 107/4/2 137/4/2
f 107/3/2 115/3/2 138/3/2
f 137/4/2 107/4/2 138/4/2
f 133/3/2 134/3/2 138/3/2
f 115/3/2 133/3/2 138/3/2
f 134/3/2 130/3/2 139/3/2
f 138/3/2 134/3/2 139/3/2
f 127/4/2 128/4/2 139/4/2
f 130/3/2 127/3/2 139/3/2
f 128/3/2 122/3/2 140/3/2
f 139/4/2 128/4/2 140/4/2
f 90/4/2 91/4/2 141/4/2
f 140/3/2 122/3/2 141/3/2
f 122/3/2 90/3/2 141/3/2
f 91/3/2 125/3/2 142/3/2
f 141/4/2 91/4/2 142/4/2
f 140/3/2 141/3/2 143/3/2
f 142/3/2 125/3/2 143/3/2
f 141/3/2 142/3/2 143/3/2
f 139/3/2 140/3/2 143/3/2
f 137/3/2 138/3/2 143/3/2
f 138/3/2 139/3/2 143/3/2
f 125/4/2 131/4/2 143/4/2
f 135/3/2 136/3/2 144/3/2
f 143/4/2 131/4/2 144/4/2
f 131/3/2 135/3/2 144/3/2
f 137/3/2 143/3/2 145/3/2
f 143/3/2 144/3/2 145/3/2
f 144/3/2 136/3/2 146/3/2
f 145/3/2 144/3/2 146/3/2
f 136/3/2 81/3/2 146/3/2
f 151/3/3 148/3/3 147/3/3
f 151/4/3 149/4/3 148/4/3
f 152/3/3 150/3/3 149/3/3
f 152/4/3 149/4/3 151/4/3
f 153/3/3 151/3/3 147/3/3
f 153/3/3 152/3/3 151/3/3
f 154/3/3 152/3/3 153/3/3
f 155/3/3 152/3/3 154/3/3
f 156/3/3 152/3/3 155/3/3
f 157/3/3 153/3/3 147/3/3
f 157/4/3 154/4/3 153/4/3
f 158/3/3 155/3/3 154/3/3
f 158/4/3 154/4/3 157/4/3
f 159/4/3 156/4/3 155/4/3
f 159/3/3 155/3/3 158/3/3
f 160/3/3 152/3/3 156/3/3
f 160/4/3 156/4/3 159/4/3
f 161/3/3 152/3/3 160/3/3
f 162/4/3 159/4/3 158/4/3
f 162/3/3 158/3/3 157/3/3
f 162/4/3 161/4/3 160/4/3
f 162/4/3 160/4/3 159/4/3
f 163/4/3 161/4/3 162/4/3
f 164/3/3 152/3/3 161/3/3
f 164/4/3 161/4/3 163/4/3
f 165/3/3 152/3/3 164/3/3
f 166/3/3 163/3/3 162/3/3
f 166/3/3 162/3/3 157/3/3
f 167/4/3 165/4/3 164/4/3
f 167/3/3 163/3/3 166/3/3
f 167/4/3 164/4/3 163/4/3
f 168/3/3 152/3/3 165/3/3
f 168/4/3 165/4/3 167/4/3
f 169/3/3 157/3/3 147/3/3
f 169/3/3 166/3/3 157/3/3
f 170/4/3 167/4/3 166/4/3
f 170/3/3 166/3/3 169/3/3
f 171/3/3 168/3/3 167/3/3
f 171/4/3 167/4/3 170/4/3
f 172/3/3 152/3/3 168/3/3
f 172/3/3 168/3/3 171/3/3
f 173/4/3 171/4/3 170/4/3
f 173/4/3 170/4/3 169/4/3
f 173/4/3 172/4/3 171/4/3
f 174/3/3 152/3/3 172/3/3
f 174/4/3 172/4/3 173/4/3
f 175/3/3 174/3/3 173/3/3
f 176/3/3 150/3/3 152/3/3
f 176/3/3 174/3/3 175/3/3
f 176/3/3 152/3/3 174/3/3
f 177/3/3 175/3/3 173/3/3
f 177/4/3 176/4/3 175/4/3
f 178/4/3 176/4/3 177/4/3
f 179/4/3 176/4/3 178/4/3
f 180/4/3 176/4/3 179/4/3
f 181/3/3 177/3/3 173/3/3
f 181/3/3 178/3/3 177/3/3
f 182/4/3 179/4/3 178/4/3
f 182/3/3 178/3/3 181/3/3
f 183/3/3 180/3/3 179/3/3
f 183/4/3 179/4/3 182/4/3
f 184/4/3 182/4/3 181/4/3
f 185/3/3 183/3/3 182/3/3
f 185/4/3 182/4/3 184/4/3
f 186/3/3 185/3/3 184/3/3
f 187/3/3 180/3/3 183/3/3
f 187/3/3 185/3/3 186/3/3
f 187/3/3 183/3/3 185/3/3
f 188/4/3 187/4/3 186/4/3
f 189/3/3 180/3/3 187/3/3
f 189/4/3 187/4/3 188/4/3
f 190/3/3 189/3/3 188/3/3
f 191/3/3 189/3/3 190/3/3
f 192/3/3 189/3/3 191/3/3
f 193/3/3 180/3/3 189/3/3
f 193/3/3 189/3/3 192/3/3
f 194/3/3 190/3/3 188/3/3
f 194/4/3 191/4/3 190/4/3
f 195/4/3 191/4/3 194/4/3
f 196/3/3 192/3/3 191/3/3
f 196/4/3 191/4/3 195/4/3
f 197/4/3 193/4/3 192/4/3
f 197/3/3 192/3/3 196/3/3
f 198/3/3 180/3/3 193/3/3
f 198/4/3 193/4/3 197/4/3
f 199/3/3 180/3/3 198/3/3
f 200/3/3 195/3/3 194/3/3
f 200/3/3 194/3/3 188/3/3
f 201/4/3 197/4/3 196/4/3
f 201/3/3 195/3/3 200/3/3
f 201/4/3 196/4/3 195/4/3
f 201/4/3 198/4/3 197/4/3
f 201/4/3 199/4/3 198/4/3
f 202/4/3 201/4/3 200/4/3
f 202/4/3 199/4/3 201/4/3
f 203/3/3 180/3/3 199/3/3
f 203/4/3 199/4/3 202/4/3
f 204/4/3 202/4/3 200/4/3
f 205/3/3 203/3/3 202/3/3
f 205/4/3 202/4/3 204/4/3
f 206/3/3 180/3/3 203/3/3
f 206/3/3 203/3/3 205/3/3
f 207/3/4 208/3/4 211/3/4
f 208/4/4 209/4/4 211/4/4
f 209/3/4 210/3/4 212/3/4
f 211/4/4 209/4/4 212/4/4
f 207/3/4 211/3/4 213/3/4
f 211/3/4 212/3/4 213/3/4
f 213/3/4 212/3/4 214/3/4
f 207/3/4 213/3/4 215/3/4
f 213/4/4 214/4/4 215/4/4
f 215/4/4 214/4/4 216/4/4
f 214/3/4 212/3/4 217/3/4
f 216/4/4 214/4/4 217/4/4
f 217/3/4 212/3/4 218/3/4
f 216/4/4 217/4/4 219/4/4
f 217/4/4 218/4/4 219/4/4
f 218/3/4 212/3/4 220/3/4
f 219/4/4 218/4/4 220/4/4
f 215/3/4 216/3/4 221/3/4
f 216/4/4 219/4/4 222/4/4
f 221/3/4 216/3/4 222/3/4
f 219/3/4 220/3/4 223/3/4
f 222/4/4 219/4/4 223/4/4
f 207/3/4 215/3/4 224/3/4
f 215/3/4 221/3/4 224/3/4
f 221/4/4 222/4/4 225/4/4
f 224/3/4 221/3/4 225/3/4
f 225/4/4 222/4/4 226/4/4
f 222/3/4 223/3/4 227/3/4
f 226/4/4 222/4/4 227/4/4
f 225/4/4 226/4/4 228/4/4
f 207/3/4 224/3/4 228/3/4
f 224/4/4 225/4/4 228/4/4
f 226/3/4 227/3/4 229/3/4
f 228/4/4 226/4/4 229/4/4
f 229/3/4 227/3/4 230/3/4
f 230/3/4 227/3/4 231/3/4
f 228/3/4 229/3/4 232/3/4
f 229/3/4 230/3/4 232/3/4
f 230/4/4 231/4/4 233/4/4
f 232/3/4 230/3/4 233/3/4
f 231/3/4 227/3/4 234/3/4
f 233/4/4 231/4/4 234/4/4
f 220/3/4 212/3/4 235/3/4
f 234/3/4 227/3/4 235/3/4
f 223/3/4 220/3/4 235/3/4
f 227/3/4 223/3/4 235/3/4
f 228/3/4 232/3/4 236/3/4
f 207/3/4 228/3/4 236/3/4
f 233/4/4 234/4/4 237/4/4
f 236/3/4 232/3/4 237/3/4
f 232/4/4 233/4/4 237/4/4
f 234/4/4 235/4/4 237/4/4
f 237/4/4 235/4/4 238/4/4
f 235/3/4 212/3/4 239/3/4
f 238/4/4 235/4/4 239/4/4
f 237/4/4 238/4/4 240/4/4
f 236/4/4 237/4/4 240/4/4
f 238/3/4 239/3/4 241/3/4
f 240/4/4 238/4/4 241/4/4
f 240/3/4 241/3/4 242/3/4
f 242/3/4 241/3/4 243/3/4
f 243/3/4 241/3/4 244/3/4
f 239/3/4 212/3/4 245/3/4
f 244/3/4 241/3/4 245/3/4
f 241/3/4 239/3/4 245/3/4
f 243/3/4 244/3/4 246/3/4
f 244/4/4 245/4/4 246/4/4
f 246/4/4 245/4/4 247/4/4
f 247/4/4 245/4/4 248/4/4
f 245/3/4 212/3/4 249/3/4
f 248/4/4 245/4/4 249/4/4
f 240/3/4 242/3/4 250/3/4
f 242/4/4 243/4/4 251/4/4
f 250/3/4 242/3/4 251/3/4
f 243/3/4 246/3/4 252/3/4
f 251/4/4 243/4/4 252/4/4
f 246/3/4 247/3/4 252/3/4
f 252/3/4 247/3/4 253/3/4
f 247/4/4 248/4/4 254/4/4
f 253/3/4 247/3/4 254/3/4
f 248/3/4 249/3/4 255/3/4
f 254/4/4 248/4/4 255/4/4
f 255/3/4 249/3/4 256/3/4
f 212/3/4 210/3/4 257/3/4
f 256/3/4 249/3/4 257/3/4
f 249/3/4 212/3/4 257/3/4
f 252/4/4 253/4/4 258/4/4
f 250/4/4 251/4/4 258/4/4
f 251/4/4 252/4/4 258/4/4
f 255/3/4 256/3/4 259/3/4
f 258/4/4 253/4/4 259/4/4
f 254/3/4 255/3/4 259/3/4
f 253/3/4 254/3/4 259/3/4
f 259/3/4 256/3/4 260/3/4
f 260/3/4 256/3/4 261/3/4
f 258/3/4 259/3/4 262/3/4
f 259/3/4 260/3/4 262/3/4
f 260/4/4 261/4/4 262/4/4
f 261/3/4 256/3/4 263/3/4
f 262/4/4 261/4/4 263/4/4
f 256/4/4 257/4/4 264/4/4
f 263/3/4 256/3/4 264/3/4
f 264/4/4 257/4/4 265/4/4
f 262/3/4 263/3/4 266/3/4
f 263/3/4 264/3/4 266/3/4
f 264/3/4 265/3/4 266/3/4
f 266/3/4 265/3/4 267/3/4
f 258/3/4 262/3/4 268/3/4
f 262/3/4 266/3/4 268/3/4
f 266/4/4 267/4/4 269/4/4
f 268/3/4 266/3/4 269/3/4
f 267/3/4 265/3/4 270/3/4
f 269/4/4 267/4/4 270/4/4
f 270/3/4 265/3/4 271/3/4
f 268/4/4 269/4/4 272/4/4
f 269/4/4 270/4/4 272/4/4
f 270/4/4 271/4/4 272/4/4
f 271/3/4 265/3/4 273/3/4
f 272/4/4 271/4/4 273/4/4
f 272/3/4 273/3/4 274/3/4
f 273/3/4 265/3/4 275/3/4
f 274/3/4 273/3/4 275/3/4
f 285/3/5 277/3/5 276/3/5
f 286/4/5 278/4/5 277/4/5
f 286/3/5 277/3/5 285/3/5
f 287/3/5 279/3/5 278/3/5
f 287/4/5 278/4/5 286/4/5
f 288/4/5 280/4/5 279/4/5
f 288/3/5 279/3/5 287/3/5
f 289/3/5 281/3/5 280/3/5
f 289/4/5 280/4/5 288/4/5
f 290/4/5 282/4/5 281/4/5
f 290/3/5 281/3/5 289/3/5
f 291/3/5 283/3/5 282/3/5
f 291/4/5 282/4/5 290/4/5
f 292/4/5 284/4/5 283/4/5
f 292/3/5 283/3/5 291/3/5
f 293/4/5 284/4/5 292/4/5
f 294/4/5 284/4/5 293/4/5
f 295/1/5 291/1/5 290/1/5
f 295/1/5 286/1/5 285/1/5
f 295/1/5 287/1/5 286/1/5
f 295/1/5 293/1/5 292/1/5
f 295/1/5 292/1/5 291/1/5
f 295/1/5 290/1/5 289/1/5
f 295/1/5 289/1/5 288/1/5
f 295/1/5 288/1/5 287/1/5
f 296/1/5 293/1/5 295/1/5
f 297/3/5 285/3/5 276/3/5
f 298/1/5 295/1/5 285/1/5
f 298/3/5 285/3/5 297/3/5
f 299/2/5 296/2/5 295/2/5
f 300/2/5 296/2/5 299/2/5
f 301/1/5 293/1/5 296/1/5
f 301/3/5 294/3/5 293/3/5
f 302/3/5 294/3/5 301/3/5
f 303/4/5 298/4/5 297/4/5
f 304/1/5 295/1/5 298/1/5
f 304/4/5 298/4/5 303/4/5
f 305/1/5 300/1/5 299/1/5
f 306/1/5 300/1/5 305/1/5
f 307/1/5 301/1/5 296/1/5
f 307/4/5 302/4/5 301/4/5
f 308/4/5 302/4/5 307/4/5
f 309/2/5 306/2/5 305/2/5
f 310/2/5 306/2/5 309/2/5
f 311/1/5 310/1/5 309/1/5
f 312/1/5 310/1/5 311/1/5
f 313/2/5 312/2/5 311/2/5
f 314/2/5 312/2/5 313/2/5
f 315/1/5 314/1/5 313/1/5
f 316/1/5 314/1/5 315/1/5
f 317/1/5 307/1/5 296/1/5
f 317/3/5 308/3/5 307/3/5
f 318/3/5 308/3/5 317/3/5
f 319/1/5 317/1/5 296/1/5
f 319/4/5 318/4/5 317/4/5
f 320/4/5 318/4/5 319/4/5
f 321/3/5 304/3/5 303/3/5
f 322/1/5 295/1/5 304/1/5
f 322/3/5 304/3/5 321/3/5
f 323/1/5 319/1/5 296/1/5
f 323/3/5 320/3/5 319/3/5
f 324/3/5 320/3/5 323/3/5
f 325/4/5 322/4/5 321/4/5
f 326/1/5 295/1/5 322/1/5
f 326/4/5 322/4/5 325/4/5
f 327/2/5 316/2/5 315/2/5
f 327/1/5 315/1/5 313/1/5
f 328/1/5 314/1/5 316/1/5
f 328/2/5 316/2/5 327/2/5
f 329/1/5 323/1/5 296/1/5
f 329/4/5 324/4/5 323/4/5
f 330/4/5 324/4/5 329/4/5
f 331/1/5 327/1/5 313/1/5
f 331/2/5 313/2/5 311/2/5
f 331/1/5 328/1/5 327/1/5
f 332/2/5 312/2/5 314/2/5
f 332/1/5 328/1/5 331/1/5
f 332/1/5 314/1/5 328/1/5
f 333/1/5 311/1/5 309/1/5
f 333/2/5 331/2/5 311/2/5
f 333/2/5 332/2/5 331/2/5
f 334/2/5 312/2/5 332/2/5
f 334/2/5 332/2/5 333/2/5
f 334/1/5 310/1/5 312/1/5
f 335/2/5 309/2/5 305/2/5
f 335/1/5 333/1/5 309/1/5
f 335/1/5 334/1/5 333/1/5
f 336/1/5 310/1/5 334/1/5
f 336/1/5 334/1/5 335/1/5
f 336/2/5 306/2/5 310/2/5
f 337/3/5 326/3/5 325/3/5
f 338/1/5 295/1/5 326/1/5
f 338/3/5 326/3/5 337/3/5
f 339/1/5 305/1/5 299/1/5
f 339/2/5 335/2/5 305/2/5
f 339/2/5 336/2/5 335/2/5
f 340/1/5 300/1/5 306/1/5
f 340/2/5 336/2/5 339/2/5
f 340/2/5 306/2/5 336/2/5
f 341/3/5 330/3/5 329/3/5
f 341/1/5 329/1/5 296/1/5
f 342/3/5 330/3/5 341/3/5
f 343/4/5 338/4/5 337/4/5
f 344/1/5 295/1/5 338/1/5
f 344/4/5 338/4/5 343/4/5
f 345/2/5 299/2/5 295/2/5
f 345/1/5 339/1/5 299/1/5
f 345/1/5 340/1/5 339/1/5
f 346/2/5 296/2/5 300/2/5
f 346/1/5 340/1/5 345/1/5
f 346/1/5 300/1/5 340/1/5
f 347/1/5 341/1/5 296/1/5
f 347/4/5 342/4/5 341/4/5
f 348/4/5 342/4/5 347/4/5
f 349/2/5 345/2/5 295/2/5
f 349/1/5 295/1/5 344/1/5
f 349/2/5 346/2/5 345/2/5
f 350/2/5 296/2/5 346/2/5
f 350/2/5 346/2/5 349/2/5
f 350/1/5 347/1/5 296/1/5
f 351/3/5 344/3/5 343/3/5
f 351/1/5 349/1/5 344/1/5
f 351/1/5 350/1/5 349/1/5
f 352/1/5 350/1/5 351/1/5
f 353/1/5 350/1/5 352/1/5
f 354/1/5 350/1/5 353/1/5
f 355/1/5 350/1/5 354/1/5
f 356/1/5 350/1/5 355/1/5
f 357/1/5 347/1/5 350/1/5
f 357/1/5 350/1/5 356/1/5
f 358/3/5 348/3/5 347/3/5
f 358/1/5 347/1/5 357/1/5
f 359/3/5 351/3/5 343/3/5
f 359/3/5 352/3/5 351/3/5
f 360/4/5 353/4/5 352/4/5
f 360/3/5 352/3/5 359/3/5
f 361/3/5 354/3/5 353/3/5
f 361/4/5 353/4/5 360/4/5
f 362/4/5 355/4/5 354/4/5
f 362/3/5 354/3/5 361/3/5
f 363/3/5 356/3/5 355/3/5
f 363/4/5 355/4/5 362/4/5
f 364/4/5 357/4/5 356/4/5
f 364/3/5 356/3/5 363/3/5
f 365/3/5 358/3/5 357/3/5
f 365/4/5 357/4/5 364/4/5
f 366/3/5 348/3/5 358/3/5
f 366/3/5 358/3/5 365/3/5
f 367/3/6 368/3/6 371/3/6
f 368/4/6 369/4/6 372/4/6
f 371/3/6 368/3/6 372/3/6
f 369/3/6 370/3/6 373/3/6
f 372/4/6 369/4/6 373/4/6
f 373/3/6 370/3/6 374/3/6
f 371/1/6 372/1/6 375/1/6
f 372/1/6 373/1/6 375/1/6
f 373/1/6 374/1/6 375/1/6
f 375/1/6 374/1/6 376/1/6
f 375/2/6 376/2/6 377/2/6
f 377/2/6 376/2/6 378/2/6
f 377/1/6 378/1/6 379/1/6
f 379/1/6 378/1/6 380/1/6
f 379/2/6 380/2/6 381/2/6
f 381/2/6 380/2/6 382/2/6
f 381/1/6 382/1/6 383/1/6
f 383/1/6 382/1/6 384/1/6
f 383/2/6 384/2/6 385/2/6
f 385/2/6 384/2/6 386/2/6
f 385/1/6 386/1/6 387/1/6
f 387/1/6 386/1/6 388/1/6
f 385/1/6 387/1/6 389/1/6
f 387/2/6 388/2/6 389/2/6
f 388/1/6 386/1/6 390/1/6
f 389/2/6 388/2/6 390/2/6
f 383/2/6 385/2/6 391/2/6
f 385/1/6 389/1/6 391/1/6
f 389/1/6 390/1/6 391/1/6
f 390/1/6 386/1/6 392/1/6
f 391/1/6 390/1/6 392/1/6
f 386/2/6 384/2/6 392/2/6
f 381/1/6 383/1/6 393/1/6
f 383/2/6 391/2/6 393/2/6
f 391/2/6 392/2/6 393/2/6
f 392/2/6 384/2/6 394/2/6
f 393/2/6 392/2/6 394/2/6
f 384/1/6 382/1/6 394/1/6
f 379/2/6 381/2/6 395/2/6
f 381/1/6 393/1/6 395/1/6
f 393/1/6 394/1/6 395/1/6
f 394/1/6 382/1/6 396/1/6
f 395/1/6 394/1/6 396/1/6
f 382/2/6 380/2/6 396/2/6
f 377/1/6 379/1/6 397/1/6
f 379/2/6 395/2/6 397/2/6
f 395/2/6 396/2/6 397/2/6
f 396/2/6 380/2/6 398/2/6
f 397/2/6 396/2/6 398/2/6
f 380/1/6 378/1/6 398/1/6
f 375/2/6 377/2/6 399/2/6
f 377/1/6 397/1/6 399/1/6
f 397/1/6 398/1/6 399/1/6
f 398/1/6 378/1/6 400/1/6
f 399/1/6 398/1/6 400/1/6
f 378/2/6 376/2/6 400/2/6
f 371/1/6 375/1/6 401/1/6
f 375/2/6 399/2/6 401/2/6
f 399/2/6 400/2/6 401/2/6
f 400/2/6 376/2/6 402/2/6
f 401/2/6 400/2/6 402/2/6
f 376/1/6 374/1/6 402/1/6
f 367/3/6 371/3/6 403/3/6
f 371/1/6 401/1/6 403/1/6
f 401/1/6 402/1/6 403/1/6
f 403/1/6 402/1/6 404/1/6
f 404/1/6 402/1/6 405/1/6
f 374/3/6 370/3/6 406/3/6
f 405/1/6 402/1/6 406/1/6
f 402/1/6 374/1/6 406/1/6
f 403/3/6 404/3/6 407/3/6
f 367/3/6 403/3/6 407/3/6
f 404/4/6 405/4/6 408/4/6
f 407/3/6 404/3/6 408/3/6
f 405/3/6 406/3/6 409/3/6
f 408/4/6 405/4/6 409/4/6
f 406/3/6 370/3/6 410/3/6
f 409/3/6 406/3/6 410/3/6
